<svg xmlns="http://www.w3.org/2000/svg" xmlns:xlink="http://www.w3.org/1999/xlink" width="500" zoomAndPan="magnify" viewBox="0 0 375 374.999991" height="500" preserveAspectRatio="xMidYMid meet" version="1.0"><defs><g/><clipPath id="919ef2f285"><path d="M 118.128906 99.101562 L 256.878906 99.101562 L 256.878906 237.851562 L 118.128906 237.851562 Z M 118.128906 99.101562 " clip-rule="nonzero"/></clipPath></defs><rect x="-37.5" width="450" fill="#ffffff" y="-37.499999" height="449.999989" fill-opacity="1"/><rect x="-37.5" width="450" fill="#000000" y="-37.499999" height="449.999989" fill-opacity="1"/><g clip-path="url(#919ef2f285)"><path fill="#ffffff" d="M 253.9375 191.644531 C 252.484375 191.644531 251.308594 190.46875 251.308594 189.015625 L 251.308594 108.34375 L 206.667969 152.984375 C 205.640625 154.011719 203.972656 154.011719 202.945312 152.984375 C 201.921875 151.957031 201.921875 150.292969 202.945312 149.265625 L 252.078125 100.136719 C 252.828125 99.382812 253.960938 99.15625 254.945312 99.566406 C 255.925781 99.972656 256.566406 100.929688 256.566406 101.996094 L 256.566406 189.015625 C 256.566406 190.46875 255.390625 191.644531 253.9375 191.644531 Z M 121.074219 237.488281 C 119.621094 237.488281 118.441406 236.3125 118.441406 234.859375 L 118.441406 143.171875 C 118.441406 142.109375 119.082031 141.148438 120.066406 140.742188 C 121.050781 140.335938 122.179688 140.558594 122.933594 141.3125 L 168.777344 187.15625 C 169.804688 188.183594 169.804688 189.847656 168.777344 190.875 C 167.75 191.902344 166.082031 191.902344 165.054688 190.875 L 123.703125 149.519531 L 123.703125 234.859375 C 123.703125 236.3125 122.523438 237.488281 121.074219 237.488281 Z M 253.9375 237.488281 C 253.265625 237.488281 252.589844 237.230469 252.078125 236.71875 L 119.214844 103.851562 C 118.1875 102.828125 118.1875 101.160156 119.214844 100.136719 C 120.242188 99.109375 121.90625 99.109375 122.933594 100.136719 L 255.796875 233 C 256.824219 234.027344 256.824219 235.691406 255.796875 236.71875 C 255.28125 237.230469 254.609375 237.488281 253.9375 237.488281 " fill-opacity="1" fill-rule="nonzero"/></g><g fill="#fffbfa" fill-opacity="1"><g transform="translate(129.459342, 261.54845)"><g><path d="M 3.5 0 C 3.683594 0 3.777344 -0.09375 3.777344 -0.28125 L 3.777344 -4.046875 L 6.144531 -1.285156 C 6.273438 -1.132812 6.410156 -1.132812 6.53125 -1.285156 L 8.929688 -4.074219 L 8.929688 -0.28125 C 8.929688 -0.09375 9.027344 0 9.210938 0 L 11.378906 0 C 11.5625 0 11.65625 -0.09375 11.65625 -0.28125 L 11.65625 -10.257812 C 11.65625 -10.777344 11.296875 -10.898438 10.972656 -10.496094 L 6.339844 -4.703125 L 1.734375 -10.496094 C 1.402344 -10.921875 1.050781 -10.777344 1.050781 -10.257812 L 1.050781 -0.28125 C 1.050781 -0.09375 1.148438 0 1.332031 0 Z M 3.5 0 "/></g></g></g><g fill="#fffbfa" fill-opacity="1"><g transform="translate(153.36735, 261.54845)"><g><path d="M 6.746094 0 C 6.929688 0 7.023438 -0.09375 7.023438 -0.28125 L 7.023438 -4.019531 L 11.109375 -10.160156 C 11.242188 -10.339844 11.152344 -10.496094 10.925781 -10.496094 L 8.214844 -10.496094 C 8.0625 -10.496094 7.949219 -10.429688 7.878906 -10.296875 L 5.636719 -6.53125 L 3.429688 -10.296875 C 3.363281 -10.429688 3.246094 -10.496094 3.09375 -10.496094 L 0.375 -10.496094 C 0.15625 -10.496094 0.0664062 -10.339844 0.199219 -10.160156 L 4.222656 -4.019531 L 4.222656 -0.28125 C 4.222656 -0.09375 4.324219 0 4.503906 0 Z M 6.746094 0 "/></g></g></g><g fill="#fffbfa" fill-opacity="1"><g transform="translate(175.874773, 261.54845)"><g><path d="M 5.472656 0 C 8.574219 0 9.320312 -1.578125 9.320312 -2.953125 C 9.320312 -4.058594 8.800781 -4.953125 7.414062 -5.40625 C 8.296875 -5.847656 8.882812 -6.664062 8.882812 -7.824219 C 8.882812 -9.28125 8.050781 -10.496094 5.40625 -10.496094 L 1.320312 -10.496094 C 1.132812 -10.496094 1.039062 -10.402344 1.039062 -10.214844 L 1.039062 -0.28125 C 1.039062 -0.09375 1.132812 0 1.320312 0 Z M 3.832031 -8.117188 L 5.359375 -8.117188 C 6.15625 -8.117188 6.421875 -7.769531 6.421875 -7.277344 C 6.421875 -6.800781 6.15625 -6.421875 5.359375 -6.421875 L 3.832031 -6.421875 Z M 3.832031 -4.324219 L 5.417969 -4.324219 C 6.238281 -4.324219 6.519531 -3.902344 6.519531 -3.339844 C 6.519531 -2.800781 6.238281 -2.378906 5.417969 -2.378906 L 3.832031 -2.378906 Z M 3.832031 -4.324219 "/></g></g></g><g fill="#fffbfa" fill-opacity="1"><g transform="translate(197.049929, 261.54845)"><g><path d="M 7.851562 0 C 8.035156 0 8.132812 -0.09375 8.132812 -0.28125 L 8.132812 -2.097656 C 8.132812 -2.28125 8.035156 -2.378906 7.851562 -2.378906 L 3.832031 -2.378906 L 3.832031 -3.609375 L 7.304688 -3.609375 C 7.488281 -3.609375 7.585938 -3.710938 7.585938 -3.886719 L 7.585938 -5.570312 C 7.585938 -5.753906 7.488281 -5.847656 7.304688 -5.847656 L 3.832031 -5.847656 L 3.832031 -8.117188 L 7.851562 -8.117188 C 8.035156 -8.117188 8.132812 -8.214844 8.132812 -8.398438 L 8.132812 -10.214844 C 8.132812 -10.402344 8.035156 -10.496094 7.851562 -10.496094 L 1.320312 -10.496094 C 1.132812 -10.496094 1.039062 -10.402344 1.039062 -10.214844 L 1.039062 -0.28125 C 1.039062 -0.09375 1.132812 0 1.320312 0 Z M 7.851562 0 "/></g></g></g><g fill="#fffbfa" fill-opacity="1"><g transform="translate(217.179776, 261.54845)"><g><path d="M 4.285156 0.28125 C 6.273438 0.28125 8.398438 -0.492188 8.398438 -2.9375 C 8.398438 -4.886719 7.039062 -5.726562 5.792969 -6.300781 C 4.550781 -6.875 3.566406 -7.183594 3.566406 -7.8125 C 3.566406 -8.28125 4.03125 -8.4375 4.675781 -8.4375 C 5.304688 -8.4375 6.101562 -8.28125 6.785156 -8.050781 C 6.957031 -7.988281 7.078125 -8.0625 7.132812 -8.226562 L 7.640625 -9.949219 C 7.695312 -10.132812 7.640625 -10.242188 7.460938 -10.296875 C 6.503906 -10.59375 5.386719 -10.777344 4.578125 -10.777344 C 2.617188 -10.777344 0.722656 -9.910156 0.722656 -7.613281 C 0.722656 -5.972656 1.777344 -5.152344 2.992188 -4.523438 C 4.222656 -3.886719 5.542969 -3.511719 5.542969 -2.816406 C 5.542969 -2.28125 5.023438 -2.085938 4.296875 -2.085938 C 3.539062 -2.085938 2.535156 -2.296875 1.640625 -2.589844 C 1.46875 -2.644531 1.347656 -2.605469 1.285156 -2.417969 L 0.683594 -0.585938 C 0.628906 -0.402344 0.695312 -0.292969 0.882812 -0.238281 C 2.152344 0.121094 3.246094 0.28125 4.285156 0.28125 Z M 4.285156 0.28125 "/></g></g></g><g fill="#fffbfa" fill-opacity="1"><g transform="translate(237.350616, 261.54845)"><g><path d="M 5.207031 0 C 5.386719 0 5.488281 -0.09375 5.488281 -0.28125 L 5.488281 -8.117188 L 7.597656 -8.117188 C 7.785156 -8.117188 7.878906 -8.214844 7.878906 -8.398438 L 7.878906 -10.214844 C 7.878906 -10.402344 7.785156 -10.496094 7.597656 -10.496094 L 0.558594 -10.496094 C 0.375 -10.496094 0.28125 -10.402344 0.28125 -10.214844 L 0.28125 -8.398438 C 0.28125 -8.214844 0.375 -8.117188 0.558594 -8.117188 L 2.671875 -8.117188 L 2.671875 -0.28125 C 2.671875 -0.09375 2.773438 0 2.953125 0 Z M 5.207031 0 "/></g></g></g><g fill="#fffbfa" fill-opacity="1"><g transform="translate(153.407092, 274.029634)"><g><path d="M 0.792969 0 L 1.21875 0 L 1.21875 -4.117188 L 3.050781 -1.363281 L 3.402344 -1.363281 L 5.234375 -4.117188 L 5.234375 0 L 5.65625 0 L 5.65625 -4.898438 L 5.265625 -4.898438 L 3.226562 -1.835938 L 1.191406 -4.898438 L 0.792969 -4.898438 Z M 0.792969 0 "/></g></g></g><g fill="#fffbfa" fill-opacity="1"><g transform="translate(162.654339, 274.029634)"><g><path d="M 2.007812 0 L 2.429688 0 L 2.429688 -1.8125 L 4.285156 -4.898438 L 3.800781 -4.898438 L 2.226562 -2.253906 L 0.644531 -4.898438 L 0.152344 -4.898438 L 2.007812 -1.800781 Z M 2.007812 0 "/></g></g></g><g fill="#fffbfa" fill-opacity="1"><g transform="translate(169.892525, 274.029634)"><g/></g></g><g fill="#fffbfa" fill-opacity="1"><g transform="translate(174.568638, 274.029634)"><g><path d="M 0.792969 0 L 2.730469 0 C 3.683594 0 4.277344 -0.511719 4.277344 -1.335938 C 4.277344 -1.933594 3.949219 -2.359375 3.382812 -2.527344 C 3.855469 -2.695312 4.136719 -3.09375 4.136719 -3.625 C 4.136719 -4.402344 3.554688 -4.898438 2.652344 -4.898438 L 0.792969 -4.898438 Z M 1.21875 -0.398438 L 1.21875 -2.304688 L 2.695312 -2.304688 C 3.421875 -2.304688 3.84375 -1.953125 3.84375 -1.351562 C 3.84375 -0.757812 3.421875 -0.398438 2.714844 -0.398438 Z M 1.21875 -2.695312 L 1.21875 -4.5 L 2.644531 -4.5 C 3.3125 -4.5 3.703125 -4.15625 3.703125 -3.597656 C 3.703125 -3.03125 3.3125 -2.695312 2.640625 -2.695312 Z M 1.21875 -2.695312 "/></g></g></g><g fill="#fffbfa" fill-opacity="1"><g transform="translate(182.100837, 274.029634)"><g><path d="M 0.792969 0 L 3.753906 0 L 3.753906 -0.398438 L 1.21875 -0.398438 L 1.21875 -2.304688 L 3.492188 -2.304688 L 3.492188 -2.695312 L 1.21875 -2.695312 L 1.21875 -4.5 L 3.675781 -4.5 L 3.675781 -4.898438 L 0.792969 -4.898438 Z M 0.792969 0 "/></g></g></g><g fill="#fffbfa" fill-opacity="1"><g transform="translate(189.164017, 274.029634)"><g><path d="M 2.367188 0.0898438 C 3.429688 0.0898438 4.101562 -0.425781 4.101562 -1.246094 C 4.101562 -1.945312 3.625 -2.378906 2.386719 -2.667969 C 1.359375 -2.898438 0.992188 -3.199219 0.992188 -3.6875 C 0.992188 -4.226562 1.457031 -4.585938 2.246094 -4.585938 C 3.066406 -4.585938 3.5625 -4.191406 3.597656 -3.5 L 4.019531 -3.5 C 3.984375 -4.445312 3.324219 -4.992188 2.246094 -4.992188 C 1.203125 -4.992188 0.566406 -4.472656 0.566406 -3.6875 C 0.566406 -2.953125 1.078125 -2.546875 2.28125 -2.269531 C 3.269531 -2.050781 3.667969 -1.75 3.667969 -1.238281 C 3.667969 -0.671875 3.171875 -0.316406 2.367188 -0.316406 C 1.519531 -0.316406 0.953125 -0.734375 0.910156 -1.457031 L 0.488281 -1.457031 C 0.523438 -0.511719 1.246094 0.0898438 2.367188 0.0898438 Z M 2.367188 0.0898438 "/></g></g></g><g fill="#fffbfa" fill-opacity="1"><g transform="translate(196.563208, 274.029634)"><g><path d="M 1.953125 0 L 2.375 0 L 2.375 -4.492188 L 4.066406 -4.492188 L 4.066406 -4.898438 L 0.265625 -4.898438 L 0.265625 -4.492188 L 1.953125 -4.492188 Z M 1.953125 0 "/></g></g></g><g fill="#fffbfa" fill-opacity="1"><g transform="translate(203.696397, 274.029634)"><g/></g></g><g fill="#fffbfa" fill-opacity="1"><g transform="translate(208.372512, 274.029634)"><g><path d="M 2.933594 0.0898438 C 4.089844 0.0898438 5.03125 -0.589844 5.335938 -1.644531 L 4.886719 -1.644531 C 4.613281 -0.832031 3.855469 -0.335938 2.941406 -0.335938 C 1.742188 -0.335938 0.882812 -1.195312 0.882812 -2.449219 C 0.882812 -3.703125 1.742188 -4.5625 2.941406 -4.5625 C 3.835938 -4.5625 4.5625 -4.089844 4.84375 -3.3125 L 5.292969 -3.3125 C 4.96875 -4.339844 4.054688 -4.992188 2.933594 -4.992188 C 1.492188 -4.992188 0.449219 -3.941406 0.449219 -2.449219 C 0.449219 -0.960938 1.492188 0.0898438 2.933594 0.0898438 Z M 2.933594 0.0898438 "/></g></g></g><g fill="#fffbfa" fill-opacity="1"><g transform="translate(216.926744, 274.029634)"><g><path d="M 2.121094 0 L 2.527344 0 L 4.488281 -4.898438 L 4.039062 -4.898438 L 3.058594 -2.449219 L 2.324219 -0.589844 L 0.609375 -4.898438 L 0.152344 -4.898438 Z M 2.121094 0 "/></g></g></g></svg>